<svg xmlns="http://www.w3.org/2000/svg" xmlns:xlink="http://www.w3.org/1999/xlink" width="154" zoomAndPan="magnify" viewBox="0 0 115.5 30.000001" height="40" preserveAspectRatio="xMidYMid meet" version="1.0"><defs><g/></defs><g fill="#ff914d" fill-opacity="1"><g transform="translate(17.872914, 20.322582)"><g><path d="M 1.40625 0 L 1.40625 -20.046875 L 5.53125 -20.046875 L 5.53125 0 Z M 1.40625 0 "/></g></g></g><g fill="#ff914d" fill-opacity="1"><g transform="translate(22.602506, 20.322582)"><g><path d="M 2.515625 -1.421875 C 1.191406 -2.597656 0.53125 -4.113281 0.53125 -5.96875 C 0.53125 -7.820312 1.222656 -9.34375 2.609375 -10.53125 C 3.992188 -11.71875 5.703125 -12.3125 7.734375 -12.3125 C 9.742188 -12.3125 11.4375 -11.710938 12.8125 -10.515625 C 14.1875 -9.316406 14.875 -7.800781 14.875 -5.96875 C 14.875 -4.132812 14.203125 -2.625 12.859375 -1.4375 C 11.515625 -0.25 9.804688 0.34375 7.734375 0.34375 C 5.585938 0.34375 3.847656 -0.242188 2.515625 -1.421875 Z M 5.71875 -7.984375 C 5.1875 -7.460938 4.921875 -6.789062 4.921875 -5.96875 C 4.921875 -5.144531 5.175781 -4.472656 5.6875 -3.953125 C 6.195312 -3.429688 6.875 -3.171875 7.71875 -3.171875 C 8.519531 -3.171875 9.179688 -3.429688 9.703125 -3.953125 C 10.222656 -4.484375 10.484375 -5.15625 10.484375 -5.96875 C 10.484375 -6.789062 10.210938 -7.460938 9.671875 -7.984375 C 9.140625 -8.515625 8.488281 -8.78125 7.71875 -8.78125 C 6.925781 -8.78125 6.257812 -8.515625 5.71875 -7.984375 Z M 5.71875 -7.984375 "/></g></g></g><g fill="#ff914d" fill-opacity="1"><g transform="translate(35.815161, 20.322582)"><g><path d="M 13.703125 -10.46875 C 14.828125 -9.238281 15.390625 -7.738281 15.390625 -5.96875 C 15.390625 -4.195312 14.828125 -2.703125 13.703125 -1.484375 C 12.585938 -0.265625 11.164062 0.34375 9.4375 0.34375 C 7.851562 0.34375 6.550781 -0.222656 5.53125 -1.359375 L 5.484375 -1.359375 L 5.484375 0 L 1.40625 0 L 1.40625 -20.046875 L 5.53125 -20.046875 L 5.53125 -10.8125 C 6.550781 -11.8125 7.851562 -12.3125 9.4375 -12.3125 C 11.164062 -12.3125 12.585938 -11.695312 13.703125 -10.46875 Z M 10.234375 -3.953125 C 10.742188 -4.472656 11 -5.144531 11 -5.96875 C 11 -6.789062 10.726562 -7.460938 10.1875 -7.984375 C 9.65625 -8.515625 8.992188 -8.78125 8.203125 -8.78125 C 7.429688 -8.78125 6.773438 -8.515625 6.234375 -7.984375 C 5.703125 -7.460938 5.4375 -6.789062 5.4375 -5.96875 C 5.4375 -5.15625 5.695312 -4.484375 6.21875 -3.953125 C 6.738281 -3.429688 7.398438 -3.171875 8.203125 -3.171875 C 9.046875 -3.171875 9.722656 -3.429688 10.234375 -3.953125 Z M 10.234375 -3.953125 "/></g></g></g><g fill="#ff914d" fill-opacity="1"><g transform="translate(49.540518, 20.322582)"><g><path d="M 2.515625 -1.421875 C 1.191406 -2.597656 0.53125 -4.113281 0.53125 -5.96875 C 0.53125 -7.820312 1.222656 -9.34375 2.609375 -10.53125 C 3.992188 -11.71875 5.703125 -12.3125 7.734375 -12.3125 C 9.742188 -12.3125 11.4375 -11.710938 12.8125 -10.515625 C 14.1875 -9.316406 14.875 -7.800781 14.875 -5.96875 C 14.875 -4.132812 14.203125 -2.625 12.859375 -1.4375 C 11.515625 -0.25 9.804688 0.34375 7.734375 0.34375 C 5.585938 0.34375 3.847656 -0.242188 2.515625 -1.421875 Z M 5.71875 -7.984375 C 5.1875 -7.460938 4.921875 -6.789062 4.921875 -5.96875 C 4.921875 -5.144531 5.175781 -4.472656 5.6875 -3.953125 C 6.195312 -3.429688 6.875 -3.171875 7.71875 -3.171875 C 8.519531 -3.171875 9.179688 -3.429688 9.703125 -3.953125 C 10.222656 -4.484375 10.484375 -5.15625 10.484375 -5.96875 C 10.484375 -6.789062 10.210938 -7.460938 9.671875 -7.984375 C 9.140625 -8.515625 8.488281 -8.78125 7.71875 -8.78125 C 6.925781 -8.78125 6.257812 -8.515625 5.71875 -7.984375 Z M 5.71875 -7.984375 "/></g></g></g><g fill="#ff914d" fill-opacity="1"><g transform="translate(62.753172, 20.322582)"><g><path d="M 1.40625 0 L 1.40625 -20.046875 L 5.53125 -20.046875 L 5.53125 0 Z M 1.40625 0 "/></g></g></g><g fill="#ff914d" fill-opacity="1"><g transform="translate(67.482764, 20.322582)"><g><path d="M 2.203125 -1.484375 C 1.085938 -2.703125 0.53125 -4.195312 0.53125 -5.96875 C 0.53125 -7.738281 1.085938 -9.238281 2.203125 -10.46875 C 3.328125 -11.695312 4.753906 -12.3125 6.484375 -12.3125 C 8.066406 -12.3125 9.367188 -11.8125 10.390625 -10.8125 L 10.390625 -11.953125 L 14.53125 -11.953125 L 14.53125 0 L 10.4375 0 L 10.4375 -1.359375 L 10.390625 -1.359375 C 9.367188 -0.222656 8.066406 0.34375 6.484375 0.34375 C 4.753906 0.34375 3.328125 -0.265625 2.203125 -1.484375 Z M 5.71875 -7.984375 C 5.1875 -7.460938 4.921875 -6.789062 4.921875 -5.96875 C 4.921875 -5.144531 5.175781 -4.472656 5.6875 -3.953125 C 6.195312 -3.429688 6.875 -3.171875 7.71875 -3.171875 C 8.519531 -3.171875 9.179688 -3.429688 9.703125 -3.953125 C 10.222656 -4.484375 10.484375 -5.15625 10.484375 -5.96875 C 10.484375 -6.789062 10.210938 -7.460938 9.671875 -7.984375 C 9.140625 -8.515625 8.488281 -8.78125 7.71875 -8.78125 C 6.925781 -8.78125 6.257812 -8.515625 5.71875 -7.984375 Z M 5.71875 -7.984375 "/></g></g></g><g fill="#ff914d" fill-opacity="1"><g transform="translate(81.208121, 20.322582)"><g><path d="M 13.703125 -10.46875 C 14.828125 -9.238281 15.390625 -7.738281 15.390625 -5.96875 C 15.390625 -4.195312 14.828125 -2.703125 13.703125 -1.484375 C 12.585938 -0.265625 11.164062 0.34375 9.4375 0.34375 C 7.851562 0.34375 6.550781 -0.222656 5.53125 -1.359375 L 5.484375 -1.359375 L 5.484375 0 L 1.40625 0 L 1.40625 -20.046875 L 5.53125 -20.046875 L 5.53125 -10.8125 C 6.550781 -11.8125 7.851562 -12.3125 9.4375 -12.3125 C 11.164062 -12.3125 12.585938 -11.695312 13.703125 -10.46875 Z M 10.234375 -3.953125 C 10.742188 -4.472656 11 -5.144531 11 -5.96875 C 11 -6.789062 10.726562 -7.460938 10.1875 -7.984375 C 9.65625 -8.515625 8.992188 -8.78125 8.203125 -8.78125 C 7.429688 -8.78125 6.773438 -8.515625 6.234375 -7.984375 C 5.703125 -7.460938 5.4375 -6.789062 5.4375 -5.96875 C 5.4375 -5.15625 5.695312 -4.484375 6.21875 -3.953125 C 6.738281 -3.429688 7.398438 -3.171875 8.203125 -3.171875 C 9.046875 -3.171875 9.722656 -3.429688 10.234375 -3.953125 Z M 10.234375 -3.953125 "/></g></g></g><g fill="#ff914d" fill-opacity="1"><g transform="translate(16.447816, 27.336955)"><g><path d="M 2.265625 -0.28125 C 2.273438 -0.25 2.28125 -0.222656 2.28125 -0.203125 C 2.28125 -0.128906 2.257812 -0.0703125 2.21875 -0.03125 C 2.175781 0 2.128906 0.015625 2.078125 0.015625 C 2.035156 0.015625 1.992188 0.00390625 1.953125 -0.015625 C 1.921875 -0.046875 1.894531 -0.0820312 1.875 -0.125 L 1.6875 -0.5625 L 0.609375 -0.5625 L 0.421875 -0.125 C 0.398438 -0.0820312 0.375 -0.046875 0.34375 -0.015625 C 0.3125 0.00390625 0.273438 0.015625 0.234375 0.015625 C 0.171875 0.015625 0.117188 0 0.078125 -0.03125 C 0.046875 -0.0625 0.03125 -0.109375 0.03125 -0.171875 C 0.03125 -0.191406 0.0351562 -0.210938 0.046875 -0.234375 L 0.953125 -2.40625 C 0.972656 -2.457031 1 -2.492188 1.03125 -2.515625 C 1.070312 -2.546875 1.117188 -2.554688 1.171875 -2.546875 C 1.210938 -2.546875 1.25 -2.53125 1.28125 -2.5 C 1.320312 -2.476562 1.351562 -2.445312 1.375 -2.40625 Z M 0.78125 -0.984375 L 1.515625 -0.984375 L 1.140625 -1.828125 Z M 0.78125 -0.984375 "/></g></g></g><g fill="#ff914d" fill-opacity="1"><g transform="translate(21.126117, 27.336955)"><g><path d="M 0.71875 -0.21875 C 0.71875 -0.15625 0.695312 -0.101562 0.65625 -0.0625 C 0.613281 -0.0195312 0.5625 0 0.5 0 C 0.4375 0 0.378906 -0.0195312 0.328125 -0.0625 C 0.285156 -0.101562 0.265625 -0.15625 0.265625 -0.21875 L 0.265625 -2.3125 C 0.265625 -2.375 0.285156 -2.425781 0.328125 -2.46875 C 0.378906 -2.507812 0.4375 -2.53125 0.5 -2.53125 C 0.5625 -2.53125 0.613281 -2.507812 0.65625 -2.46875 C 0.695312 -2.425781 0.71875 -2.375 0.71875 -2.3125 Z M 0.71875 -0.21875 "/></g></g></g><g fill="#ff914d" fill-opacity="1"><g transform="translate(24.485355, 27.336955)"><g><path d="M 0.40625 -0.890625 C 0.34375 -0.890625 0.289062 -0.910156 0.25 -0.953125 C 0.207031 -0.992188 0.1875 -1.046875 0.1875 -1.109375 C 0.1875 -1.171875 0.207031 -1.222656 0.25 -1.265625 C 0.289062 -1.304688 0.34375 -1.328125 0.40625 -1.328125 L 1.03125 -1.328125 C 1.09375 -1.328125 1.144531 -1.304688 1.1875 -1.265625 C 1.226562 -1.222656 1.25 -1.171875 1.25 -1.109375 C 1.25 -1.046875 1.226562 -0.992188 1.1875 -0.953125 C 1.144531 -0.910156 1.09375 -0.890625 1.03125 -0.890625 Z M 0.40625 -0.890625 "/></g></g></g><g fill="#ff914d" fill-opacity="1"><g transform="translate(28.283072, 27.336955)"><g><path d="M 1.3125 -2.53125 C 1.4375 -2.53125 1.554688 -2.492188 1.671875 -2.421875 C 1.785156 -2.347656 1.875 -2.25 1.9375 -2.125 C 2.007812 -2 2.046875 -1.863281 2.046875 -1.71875 C 2.046875 -1.570312 2.007812 -1.4375 1.9375 -1.3125 C 1.875 -1.1875 1.785156 -1.085938 1.671875 -1.015625 C 1.554688 -0.941406 1.4375 -0.90625 1.3125 -0.90625 L 0.6875 -0.90625 L 0.6875 -0.21875 C 0.6875 -0.15625 0.664062 -0.101562 0.625 -0.0625 C 0.59375 -0.0195312 0.546875 0 0.484375 0 C 0.421875 0 0.367188 -0.0195312 0.328125 -0.0625 C 0.285156 -0.101562 0.265625 -0.15625 0.265625 -0.21875 L 0.265625 -2.3125 C 0.265625 -2.375 0.285156 -2.425781 0.328125 -2.46875 C 0.378906 -2.507812 0.4375 -2.53125 0.5 -2.53125 Z M 1.3125 -1.3125 C 1.363281 -1.3125 1.410156 -1.332031 1.453125 -1.375 C 1.492188 -1.414062 1.53125 -1.46875 1.5625 -1.53125 C 1.59375 -1.59375 1.609375 -1.65625 1.609375 -1.71875 C 1.609375 -1.789062 1.59375 -1.859375 1.5625 -1.921875 C 1.53125 -1.984375 1.492188 -2.03125 1.453125 -2.0625 C 1.410156 -2.101562 1.363281 -2.125 1.3125 -2.125 L 0.6875 -2.125 L 0.6875 -1.3125 Z M 1.3125 -1.3125 "/></g></g></g><g fill="#ff914d" fill-opacity="1"><g transform="translate(32.830915, 27.336955)"><g><path d="M 2.09375 -0.96875 C 2.09375 -0.769531 2.050781 -0.59375 1.96875 -0.4375 C 1.882812 -0.289062 1.765625 -0.175781 1.609375 -0.09375 C 1.460938 -0.0078125 1.296875 0.03125 1.109375 0.03125 C 0.929688 0.03125 0.765625 -0.0078125 0.609375 -0.09375 C 0.460938 -0.175781 0.34375 -0.289062 0.25 -0.4375 C 0.164062 -0.59375 0.125 -0.769531 0.125 -0.96875 C 0.125 -1.164062 0.164062 -1.335938 0.25 -1.484375 C 0.34375 -1.640625 0.460938 -1.757812 0.609375 -1.84375 C 0.765625 -1.925781 0.929688 -1.96875 1.109375 -1.96875 C 1.296875 -1.96875 1.460938 -1.925781 1.609375 -1.84375 C 1.765625 -1.757812 1.882812 -1.640625 1.96875 -1.484375 C 2.050781 -1.335938 2.09375 -1.164062 2.09375 -0.96875 Z M 1.65625 -0.96875 C 1.65625 -1.082031 1.628906 -1.1875 1.578125 -1.28125 C 1.535156 -1.375 1.472656 -1.445312 1.390625 -1.5 C 1.304688 -1.550781 1.210938 -1.578125 1.109375 -1.578125 C 1.003906 -1.578125 0.910156 -1.550781 0.828125 -1.5 C 0.742188 -1.445312 0.675781 -1.375 0.625 -1.28125 C 0.582031 -1.1875 0.5625 -1.082031 0.5625 -0.96875 C 0.5625 -0.851562 0.582031 -0.75 0.625 -0.65625 C 0.675781 -0.5625 0.742188 -0.488281 0.828125 -0.4375 C 0.910156 -0.382812 1.003906 -0.359375 1.109375 -0.359375 C 1.210938 -0.359375 1.304688 -0.382812 1.390625 -0.4375 C 1.472656 -0.488281 1.535156 -0.5625 1.578125 -0.65625 C 1.628906 -0.75 1.65625 -0.851562 1.65625 -0.96875 Z M 1.65625 -0.96875 "/></g></g></g><g fill="#ff914d" fill-opacity="1"><g transform="translate(37.418621, 27.336955)"><g><path d="M 2.46875 -1.9375 C 2.53125 -1.9375 2.578125 -1.914062 2.609375 -1.875 C 2.648438 -1.832031 2.671875 -1.78125 2.671875 -1.71875 C 2.671875 -1.695312 2.664062 -1.664062 2.65625 -1.625 L 2.109375 -0.140625 C 2.085938 -0.0976562 2.054688 -0.0625 2.015625 -0.03125 C 1.984375 -0.0078125 1.945312 0 1.90625 0 L 1.875 0 C 1.789062 0 1.726562 -0.046875 1.6875 -0.140625 L 1.390625 -1.03125 L 1.09375 -0.140625 C 1.050781 -0.046875 0.988281 0 0.90625 0 L 0.875 0 C 0.832031 0 0.789062 -0.0078125 0.75 -0.03125 C 0.71875 -0.0625 0.691406 -0.0976562 0.671875 -0.140625 L 0.125 -1.625 C 0.113281 -1.65625 0.109375 -1.6875 0.109375 -1.71875 C 0.109375 -1.78125 0.128906 -1.832031 0.171875 -1.875 C 0.210938 -1.914062 0.265625 -1.9375 0.328125 -1.9375 C 0.378906 -1.9375 0.421875 -1.925781 0.453125 -1.90625 C 0.484375 -1.882812 0.507812 -1.847656 0.53125 -1.796875 L 0.921875 -0.734375 L 1.203125 -1.515625 C 1.242188 -1.609375 1.3125 -1.65625 1.40625 -1.65625 C 1.457031 -1.65625 1.492188 -1.640625 1.515625 -1.609375 C 1.546875 -1.585938 1.570312 -1.554688 1.59375 -1.515625 L 1.875 -0.75 L 2.265625 -1.796875 C 2.273438 -1.847656 2.296875 -1.882812 2.328125 -1.90625 C 2.367188 -1.925781 2.414062 -1.9375 2.46875 -1.9375 Z M 2.46875 -1.9375 "/></g></g></g><g fill="#ff914d" fill-opacity="1"><g transform="translate(42.564389, 27.336955)"><g><path d="M 1.96875 -1.015625 C 1.96875 -0.953125 1.945312 -0.898438 1.90625 -0.859375 C 1.863281 -0.828125 1.8125 -0.8125 1.75 -0.8125 L 0.5625 -0.8125 C 0.59375 -0.675781 0.65625 -0.566406 0.75 -0.484375 C 0.851562 -0.398438 0.972656 -0.359375 1.109375 -0.359375 C 1.210938 -0.359375 1.289062 -0.367188 1.34375 -0.390625 C 1.394531 -0.410156 1.4375 -0.429688 1.46875 -0.453125 C 1.5 -0.472656 1.523438 -0.484375 1.546875 -0.484375 C 1.585938 -0.503906 1.625 -0.515625 1.65625 -0.515625 C 1.707031 -0.515625 1.75 -0.492188 1.78125 -0.453125 C 1.820312 -0.421875 1.84375 -0.382812 1.84375 -0.34375 C 1.84375 -0.28125 1.8125 -0.21875 1.75 -0.15625 C 1.675781 -0.101562 1.582031 -0.0546875 1.46875 -0.015625 C 1.363281 0.015625 1.25 0.03125 1.125 0.03125 C 0.925781 0.03125 0.75 -0.0078125 0.59375 -0.09375 C 0.445312 -0.175781 0.332031 -0.289062 0.25 -0.4375 C 0.164062 -0.582031 0.125 -0.75 0.125 -0.9375 C 0.125 -1.144531 0.164062 -1.328125 0.25 -1.484375 C 0.34375 -1.640625 0.457031 -1.757812 0.59375 -1.84375 C 0.738281 -1.925781 0.894531 -1.96875 1.0625 -1.96875 C 1.21875 -1.96875 1.363281 -1.925781 1.5 -1.84375 C 1.644531 -1.757812 1.757812 -1.640625 1.84375 -1.484375 C 1.925781 -1.335938 1.96875 -1.179688 1.96875 -1.015625 Z M 1.0625 -1.578125 C 0.78125 -1.578125 0.613281 -1.445312 0.5625 -1.1875 L 1.515625 -1.1875 L 1.515625 -1.203125 C 1.503906 -1.304688 1.453125 -1.394531 1.359375 -1.46875 C 1.273438 -1.539062 1.175781 -1.578125 1.0625 -1.578125 Z M 1.0625 -1.578125 "/></g></g></g><g fill="#ff914d" fill-opacity="1"><g transform="translate(47.028886, 27.336955)"><g><path d="M 1.25 -1.96875 C 1.320312 -1.96875 1.378906 -1.945312 1.421875 -1.90625 C 1.472656 -1.875 1.5 -1.828125 1.5 -1.765625 C 1.5 -1.691406 1.476562 -1.632812 1.4375 -1.59375 C 1.40625 -1.5625 1.363281 -1.546875 1.3125 -1.546875 C 1.269531 -1.546875 1.226562 -1.550781 1.1875 -1.5625 C 1.175781 -1.570312 1.15625 -1.578125 1.125 -1.578125 C 1.101562 -1.585938 1.078125 -1.59375 1.046875 -1.59375 C 0.984375 -1.59375 0.921875 -1.570312 0.859375 -1.53125 C 0.804688 -1.5 0.757812 -1.441406 0.71875 -1.359375 C 0.6875 -1.285156 0.671875 -1.191406 0.671875 -1.078125 L 0.671875 -0.21875 C 0.671875 -0.15625 0.648438 -0.101562 0.609375 -0.0625 C 0.566406 -0.0195312 0.515625 0 0.453125 0 C 0.390625 0 0.335938 -0.0195312 0.296875 -0.0625 C 0.253906 -0.101562 0.234375 -0.15625 0.234375 -0.21875 L 0.234375 -1.71875 C 0.234375 -1.78125 0.253906 -1.832031 0.296875 -1.875 C 0.335938 -1.914062 0.390625 -1.9375 0.453125 -1.9375 C 0.515625 -1.9375 0.566406 -1.914062 0.609375 -1.875 C 0.648438 -1.832031 0.671875 -1.78125 0.671875 -1.71875 L 0.671875 -1.671875 C 0.722656 -1.765625 0.800781 -1.835938 0.90625 -1.890625 C 1.007812 -1.941406 1.125 -1.96875 1.25 -1.96875 Z M 1.25 -1.96875 "/></g></g></g><g fill="#ff914d" fill-opacity="1"><g transform="translate(50.964308, 27.336955)"><g><path d="M 1.96875 -1.015625 C 1.96875 -0.953125 1.945312 -0.898438 1.90625 -0.859375 C 1.863281 -0.828125 1.8125 -0.8125 1.75 -0.8125 L 0.5625 -0.8125 C 0.59375 -0.675781 0.65625 -0.566406 0.75 -0.484375 C 0.851562 -0.398438 0.972656 -0.359375 1.109375 -0.359375 C 1.210938 -0.359375 1.289062 -0.367188 1.34375 -0.390625 C 1.394531 -0.410156 1.4375 -0.429688 1.46875 -0.453125 C 1.5 -0.472656 1.523438 -0.484375 1.546875 -0.484375 C 1.585938 -0.503906 1.625 -0.515625 1.65625 -0.515625 C 1.707031 -0.515625 1.75 -0.492188 1.78125 -0.453125 C 1.820312 -0.421875 1.84375 -0.382812 1.84375 -0.34375 C 1.84375 -0.28125 1.8125 -0.21875 1.75 -0.15625 C 1.675781 -0.101562 1.582031 -0.0546875 1.46875 -0.015625 C 1.363281 0.015625 1.25 0.03125 1.125 0.03125 C 0.925781 0.03125 0.75 -0.0078125 0.59375 -0.09375 C 0.445312 -0.175781 0.332031 -0.289062 0.25 -0.4375 C 0.164062 -0.582031 0.125 -0.75 0.125 -0.9375 C 0.125 -1.144531 0.164062 -1.328125 0.25 -1.484375 C 0.34375 -1.640625 0.457031 -1.757812 0.59375 -1.84375 C 0.738281 -1.925781 0.894531 -1.96875 1.0625 -1.96875 C 1.21875 -1.96875 1.363281 -1.925781 1.5 -1.84375 C 1.644531 -1.757812 1.757812 -1.640625 1.84375 -1.484375 C 1.925781 -1.335938 1.96875 -1.179688 1.96875 -1.015625 Z M 1.0625 -1.578125 C 0.78125 -1.578125 0.613281 -1.445312 0.5625 -1.1875 L 1.515625 -1.1875 L 1.515625 -1.203125 C 1.503906 -1.304688 1.453125 -1.394531 1.359375 -1.46875 C 1.273438 -1.539062 1.175781 -1.578125 1.0625 -1.578125 Z M 1.0625 -1.578125 "/></g></g></g><g fill="#ff914d" fill-opacity="1"><g transform="translate(55.428804, 27.336955)"><g><path d="M 1.8125 -2.6875 C 1.875 -2.6875 1.921875 -2.664062 1.953125 -2.625 C 1.992188 -2.582031 2.015625 -2.53125 2.015625 -2.46875 L 2.015625 -0.21875 C 2.015625 -0.15625 1.992188 -0.101562 1.953125 -0.0625 C 1.921875 -0.0195312 1.875 0 1.8125 0 C 1.75 0 1.695312 -0.0195312 1.65625 -0.0625 C 1.613281 -0.101562 1.59375 -0.15625 1.59375 -0.21875 C 1.53125 -0.144531 1.445312 -0.0820312 1.34375 -0.03125 C 1.238281 0.0078125 1.128906 0.03125 1.015625 0.03125 C 0.847656 0.03125 0.695312 -0.0078125 0.5625 -0.09375 C 0.425781 -0.175781 0.316406 -0.289062 0.234375 -0.4375 C 0.160156 -0.59375 0.125 -0.769531 0.125 -0.96875 C 0.125 -1.164062 0.160156 -1.335938 0.234375 -1.484375 C 0.316406 -1.640625 0.425781 -1.757812 0.5625 -1.84375 C 0.695312 -1.925781 0.84375 -1.96875 1 -1.96875 C 1.113281 -1.96875 1.222656 -1.945312 1.328125 -1.90625 C 1.429688 -1.863281 1.519531 -1.8125 1.59375 -1.75 L 1.59375 -2.46875 C 1.59375 -2.53125 1.613281 -2.582031 1.65625 -2.625 C 1.695312 -2.664062 1.75 -2.6875 1.8125 -2.6875 Z M 1.078125 -0.359375 C 1.234375 -0.359375 1.359375 -0.414062 1.453125 -0.53125 C 1.554688 -0.644531 1.609375 -0.789062 1.609375 -0.96875 C 1.609375 -1.144531 1.554688 -1.289062 1.453125 -1.40625 C 1.359375 -1.519531 1.234375 -1.578125 1.078125 -1.578125 C 0.921875 -1.578125 0.789062 -1.519531 0.6875 -1.40625 C 0.59375 -1.289062 0.546875 -1.144531 0.546875 -0.96875 C 0.546875 -0.789062 0.59375 -0.644531 0.6875 -0.53125 C 0.789062 -0.414062 0.921875 -0.359375 1.078125 -0.359375 Z M 1.078125 -0.359375 "/></g></g></g><g fill="#ff914d" fill-opacity="1"><g transform="translate(60.049126, 27.336955)"><g/></g></g><g fill="#ff914d" fill-opacity="1"><g transform="translate(63.426488, 27.336955)"><g><path d="M 1.09375 0.03125 C 0.914062 0.03125 0.757812 0.0078125 0.625 -0.03125 C 0.488281 -0.0703125 0.363281 -0.144531 0.25 -0.25 C 0.175781 -0.3125 0.140625 -0.375 0.140625 -0.4375 C 0.140625 -0.5 0.160156 -0.550781 0.203125 -0.59375 C 0.242188 -0.632812 0.296875 -0.65625 0.359375 -0.65625 C 0.398438 -0.65625 0.441406 -0.640625 0.484375 -0.609375 C 0.578125 -0.523438 0.671875 -0.460938 0.765625 -0.421875 C 0.859375 -0.390625 0.96875 -0.375 1.09375 -0.375 C 1.226562 -0.375 1.34375 -0.40625 1.4375 -0.46875 C 1.53125 -0.53125 1.578125 -0.609375 1.578125 -0.703125 C 1.578125 -0.804688 1.53125 -0.890625 1.4375 -0.953125 C 1.34375 -1.015625 1.191406 -1.0625 0.984375 -1.09375 C 0.453125 -1.164062 0.1875 -1.410156 0.1875 -1.828125 C 0.1875 -1.984375 0.222656 -2.113281 0.296875 -2.21875 C 0.378906 -2.332031 0.488281 -2.421875 0.625 -2.484375 C 0.769531 -2.546875 0.925781 -2.578125 1.09375 -2.578125 C 1.238281 -2.578125 1.378906 -2.550781 1.515625 -2.5 C 1.648438 -2.457031 1.765625 -2.398438 1.859375 -2.328125 C 1.929688 -2.265625 1.96875 -2.195312 1.96875 -2.125 C 1.96875 -2.070312 1.945312 -2.023438 1.90625 -1.984375 C 1.863281 -1.941406 1.8125 -1.921875 1.75 -1.921875 C 1.71875 -1.921875 1.6875 -1.929688 1.65625 -1.953125 C 1.59375 -2.003906 1.503906 -2.050781 1.390625 -2.09375 C 1.273438 -2.132812 1.175781 -2.15625 1.09375 -2.15625 C 0.9375 -2.15625 0.816406 -2.125 0.734375 -2.0625 C 0.648438 -2.007812 0.609375 -1.9375 0.609375 -1.84375 C 0.609375 -1.738281 0.648438 -1.660156 0.734375 -1.609375 C 0.828125 -1.554688 0.960938 -1.515625 1.140625 -1.484375 C 1.347656 -1.441406 1.515625 -1.394531 1.640625 -1.34375 C 1.765625 -1.289062 1.859375 -1.210938 1.921875 -1.109375 C 1.984375 -1.015625 2.015625 -0.882812 2.015625 -0.71875 C 2.015625 -0.570312 1.972656 -0.441406 1.890625 -0.328125 C 1.804688 -0.210938 1.691406 -0.125 1.546875 -0.0625 C 1.398438 0 1.25 0.03125 1.09375 0.03125 Z M 1.09375 0.03125 "/></g></g></g><g fill="#ff914d" fill-opacity="1"><g transform="translate(67.95259, 27.336955)"><g><path d="M 2.09375 -0.96875 C 2.09375 -0.769531 2.050781 -0.59375 1.96875 -0.4375 C 1.882812 -0.289062 1.765625 -0.175781 1.609375 -0.09375 C 1.460938 -0.0078125 1.296875 0.03125 1.109375 0.03125 C 0.929688 0.03125 0.765625 -0.0078125 0.609375 -0.09375 C 0.460938 -0.175781 0.34375 -0.289062 0.25 -0.4375 C 0.164062 -0.59375 0.125 -0.769531 0.125 -0.96875 C 0.125 -1.164062 0.164062 -1.335938 0.25 -1.484375 C 0.34375 -1.640625 0.460938 -1.757812 0.609375 -1.84375 C 0.765625 -1.925781 0.929688 -1.96875 1.109375 -1.96875 C 1.296875 -1.96875 1.460938 -1.925781 1.609375 -1.84375 C 1.765625 -1.757812 1.882812 -1.640625 1.96875 -1.484375 C 2.050781 -1.335938 2.09375 -1.164062 2.09375 -0.96875 Z M 1.65625 -0.96875 C 1.65625 -1.082031 1.628906 -1.1875 1.578125 -1.28125 C 1.535156 -1.375 1.472656 -1.445312 1.390625 -1.5 C 1.304688 -1.550781 1.210938 -1.578125 1.109375 -1.578125 C 1.003906 -1.578125 0.910156 -1.550781 0.828125 -1.5 C 0.742188 -1.445312 0.675781 -1.375 0.625 -1.28125 C 0.582031 -1.1875 0.5625 -1.082031 0.5625 -0.96875 C 0.5625 -0.851562 0.582031 -0.75 0.625 -0.65625 C 0.675781 -0.5625 0.742188 -0.488281 0.828125 -0.4375 C 0.910156 -0.382812 1.003906 -0.359375 1.109375 -0.359375 C 1.210938 -0.359375 1.304688 -0.382812 1.390625 -0.4375 C 1.472656 -0.488281 1.535156 -0.5625 1.578125 -0.65625 C 1.628906 -0.75 1.65625 -0.851562 1.65625 -0.96875 Z M 1.65625 -0.96875 "/></g></g></g><g fill="#ff914d" fill-opacity="1"><g transform="translate(72.540298, 27.336955)"><g><path d="M 0.703125 -0.21875 C 0.703125 -0.15625 0.679688 -0.101562 0.640625 -0.0625 C 0.597656 -0.0195312 0.546875 0 0.484375 0 C 0.421875 0 0.367188 -0.0195312 0.328125 -0.0625 C 0.285156 -0.101562 0.265625 -0.15625 0.265625 -0.21875 L 0.265625 -2.46875 C 0.265625 -2.53125 0.285156 -2.582031 0.328125 -2.625 C 0.378906 -2.664062 0.4375 -2.6875 0.5 -2.6875 C 0.550781 -2.6875 0.597656 -2.664062 0.640625 -2.625 C 0.679688 -2.582031 0.703125 -2.53125 0.703125 -2.46875 Z M 0.703125 -0.21875 "/></g></g></g><g fill="#ff914d" fill-opacity="1"><g transform="translate(75.881419, 27.336955)"><g><path d="M 1.671875 -1.9375 C 1.734375 -1.9375 1.785156 -1.914062 1.828125 -1.875 C 1.867188 -1.832031 1.890625 -1.78125 1.890625 -1.71875 L 1.890625 -0.796875 C 1.890625 -0.535156 1.816406 -0.332031 1.671875 -0.1875 C 1.523438 -0.0390625 1.320312 0.03125 1.0625 0.03125 C 0.789062 0.03125 0.582031 -0.0390625 0.4375 -0.1875 C 0.300781 -0.332031 0.234375 -0.535156 0.234375 -0.796875 L 0.234375 -1.71875 C 0.234375 -1.78125 0.253906 -1.832031 0.296875 -1.875 C 0.335938 -1.914062 0.390625 -1.9375 0.453125 -1.9375 C 0.515625 -1.9375 0.566406 -1.914062 0.609375 -1.875 C 0.648438 -1.832031 0.671875 -1.78125 0.671875 -1.71875 L 0.671875 -0.796875 C 0.671875 -0.648438 0.703125 -0.539062 0.765625 -0.46875 C 0.828125 -0.394531 0.925781 -0.359375 1.0625 -0.359375 C 1.195312 -0.359375 1.296875 -0.394531 1.359375 -0.46875 C 1.421875 -0.539062 1.453125 -0.648438 1.453125 -0.796875 L 1.453125 -1.71875 C 1.453125 -1.78125 1.472656 -1.832031 1.515625 -1.875 C 1.554688 -1.914062 1.609375 -1.9375 1.671875 -1.9375 Z M 1.671875 -1.9375 "/></g></g></g><g fill="#ff914d" fill-opacity="1"><g transform="translate(80.371284, 27.336955)"><g><path d="M 1.171875 -0.40625 C 1.203125 -0.40625 1.234375 -0.390625 1.265625 -0.359375 C 1.296875 -0.328125 1.3125 -0.285156 1.3125 -0.234375 C 1.3125 -0.171875 1.273438 -0.113281 1.203125 -0.0625 C 1.128906 -0.0195312 1.046875 0 0.953125 0 C 0.804688 0 0.679688 -0.03125 0.578125 -0.09375 C 0.472656 -0.15625 0.421875 -0.289062 0.421875 -0.5 L 0.421875 -1.5 L 0.25 -1.5 C 0.195312 -1.5 0.148438 -1.519531 0.109375 -1.5625 C 0.0664062 -1.601562 0.046875 -1.648438 0.046875 -1.703125 C 0.046875 -1.765625 0.0664062 -1.8125 0.109375 -1.84375 C 0.148438 -1.882812 0.195312 -1.90625 0.25 -1.90625 L 0.421875 -1.90625 L 0.421875 -2.140625 C 0.421875 -2.203125 0.441406 -2.253906 0.484375 -2.296875 C 0.523438 -2.335938 0.578125 -2.359375 0.640625 -2.359375 C 0.703125 -2.359375 0.753906 -2.335938 0.796875 -2.296875 C 0.835938 -2.253906 0.859375 -2.203125 0.859375 -2.140625 L 0.859375 -1.90625 L 1.109375 -1.90625 C 1.171875 -1.90625 1.21875 -1.882812 1.25 -1.84375 C 1.289062 -1.800781 1.3125 -1.753906 1.3125 -1.703125 C 1.3125 -1.640625 1.289062 -1.585938 1.25 -1.546875 C 1.21875 -1.515625 1.171875 -1.5 1.109375 -1.5 L 0.859375 -1.5 L 0.859375 -0.515625 C 0.859375 -0.472656 0.867188 -0.4375 0.890625 -0.40625 C 0.921875 -0.382812 0.957031 -0.375 1 -0.375 C 1.019531 -0.375 1.050781 -0.378906 1.09375 -0.390625 C 1.113281 -0.398438 1.140625 -0.40625 1.171875 -0.40625 Z M 1.171875 -0.40625 "/></g></g></g><g fill="#ff914d" fill-opacity="1"><g transform="translate(84.216113, 27.336955)"><g><path d="M 0.640625 -0.21875 C 0.640625 -0.15625 0.617188 -0.101562 0.578125 -0.0625 C 0.535156 -0.0195312 0.484375 0 0.421875 0 C 0.359375 0 0.304688 -0.0195312 0.265625 -0.0625 C 0.222656 -0.101562 0.203125 -0.15625 0.203125 -0.21875 L 0.203125 -1.71875 C 0.203125 -1.78125 0.222656 -1.832031 0.265625 -1.875 C 0.304688 -1.914062 0.359375 -1.9375 0.421875 -1.9375 C 0.484375 -1.9375 0.535156 -1.914062 0.578125 -1.875 C 0.617188 -1.832031 0.640625 -1.78125 0.640625 -1.71875 Z M 0.4375 -2.171875 C 0.351562 -2.171875 0.289062 -2.179688 0.25 -2.203125 C 0.21875 -2.234375 0.203125 -2.285156 0.203125 -2.359375 L 0.203125 -2.421875 C 0.203125 -2.492188 0.21875 -2.539062 0.25 -2.5625 C 0.289062 -2.59375 0.351562 -2.609375 0.4375 -2.609375 C 0.519531 -2.609375 0.578125 -2.59375 0.609375 -2.5625 C 0.640625 -2.539062 0.65625 -2.492188 0.65625 -2.421875 L 0.65625 -2.359375 C 0.65625 -2.285156 0.640625 -2.234375 0.609375 -2.203125 C 0.578125 -2.179688 0.519531 -2.171875 0.4375 -2.171875 Z M 0.4375 -2.171875 "/></g></g></g><g fill="#ff914d" fill-opacity="1"><g transform="translate(87.434025, 27.336955)"><g><path d="M 2.09375 -0.96875 C 2.09375 -0.769531 2.050781 -0.59375 1.96875 -0.4375 C 1.882812 -0.289062 1.765625 -0.175781 1.609375 -0.09375 C 1.460938 -0.0078125 1.296875 0.03125 1.109375 0.03125 C 0.929688 0.03125 0.765625 -0.0078125 0.609375 -0.09375 C 0.460938 -0.175781 0.34375 -0.289062 0.25 -0.4375 C 0.164062 -0.59375 0.125 -0.769531 0.125 -0.96875 C 0.125 -1.164062 0.164062 -1.335938 0.25 -1.484375 C 0.34375 -1.640625 0.460938 -1.757812 0.609375 -1.84375 C 0.765625 -1.925781 0.929688 -1.96875 1.109375 -1.96875 C 1.296875 -1.96875 1.460938 -1.925781 1.609375 -1.84375 C 1.765625 -1.757812 1.882812 -1.640625 1.96875 -1.484375 C 2.050781 -1.335938 2.09375 -1.164062 2.09375 -0.96875 Z M 1.65625 -0.96875 C 1.65625 -1.082031 1.628906 -1.1875 1.578125 -1.28125 C 1.535156 -1.375 1.472656 -1.445312 1.390625 -1.5 C 1.304688 -1.550781 1.210938 -1.578125 1.109375 -1.578125 C 1.003906 -1.578125 0.910156 -1.550781 0.828125 -1.5 C 0.742188 -1.445312 0.675781 -1.375 0.625 -1.28125 C 0.582031 -1.1875 0.5625 -1.082031 0.5625 -0.96875 C 0.5625 -0.851562 0.582031 -0.75 0.625 -0.65625 C 0.675781 -0.5625 0.742188 -0.488281 0.828125 -0.4375 C 0.910156 -0.382812 1.003906 -0.359375 1.109375 -0.359375 C 1.210938 -0.359375 1.304688 -0.382812 1.390625 -0.4375 C 1.472656 -0.488281 1.535156 -0.5625 1.578125 -0.65625 C 1.628906 -0.75 1.65625 -0.851562 1.65625 -0.96875 Z M 1.65625 -0.96875 "/></g></g></g><g fill="#ff914d" fill-opacity="1"><g transform="translate(92.021733, 27.336955)"><g><path d="M 1.265625 -1.96875 C 1.515625 -1.96875 1.6875 -1.894531 1.78125 -1.75 C 1.875 -1.601562 1.921875 -1.40625 1.921875 -1.15625 L 1.921875 -0.21875 C 1.921875 -0.15625 1.898438 -0.101562 1.859375 -0.0625 C 1.816406 -0.0195312 1.765625 0 1.703125 0 C 1.640625 0 1.585938 -0.0195312 1.546875 -0.0625 C 1.503906 -0.101562 1.484375 -0.15625 1.484375 -0.21875 L 1.484375 -1.15625 C 1.484375 -1.28125 1.457031 -1.378906 1.40625 -1.453125 C 1.351562 -1.535156 1.257812 -1.578125 1.125 -1.578125 C 0.976562 -1.578125 0.863281 -1.535156 0.78125 -1.453125 C 0.707031 -1.367188 0.671875 -1.269531 0.671875 -1.15625 L 0.671875 -0.21875 C 0.671875 -0.15625 0.648438 -0.101562 0.609375 -0.0625 C 0.566406 -0.0195312 0.515625 0 0.453125 0 C 0.390625 0 0.335938 -0.0195312 0.296875 -0.0625 C 0.253906 -0.101562 0.234375 -0.15625 0.234375 -0.21875 L 0.234375 -1.71875 C 0.234375 -1.78125 0.253906 -1.832031 0.296875 -1.875 C 0.335938 -1.914062 0.390625 -1.9375 0.453125 -1.9375 C 0.515625 -1.9375 0.566406 -1.914062 0.609375 -1.875 C 0.648438 -1.832031 0.671875 -1.78125 0.671875 -1.71875 L 0.671875 -1.65625 C 0.734375 -1.738281 0.816406 -1.8125 0.921875 -1.875 C 1.023438 -1.9375 1.140625 -1.96875 1.265625 -1.96875 Z M 1.265625 -1.96875 "/></g></g></g><g fill="#ff914d" fill-opacity="1"><g transform="translate(96.544207, 27.336955)"><g><path d="M 0.125 -0.296875 C 0.101562 -0.328125 0.09375 -0.363281 0.09375 -0.40625 C 0.09375 -0.46875 0.125 -0.519531 0.1875 -0.5625 C 0.21875 -0.59375 0.253906 -0.609375 0.296875 -0.609375 C 0.335938 -0.609375 0.382812 -0.582031 0.4375 -0.53125 C 0.507812 -0.457031 0.582031 -0.398438 0.65625 -0.359375 C 0.738281 -0.328125 0.835938 -0.3125 0.953125 -0.3125 C 1.140625 -0.320312 1.234375 -0.394531 1.234375 -0.53125 C 1.234375 -0.59375 1.195312 -0.640625 1.125 -0.671875 C 1.0625 -0.710938 0.960938 -0.753906 0.828125 -0.796875 C 0.691406 -0.835938 0.578125 -0.875 0.484375 -0.90625 C 0.398438 -0.945312 0.328125 -1.003906 0.265625 -1.078125 C 0.203125 -1.160156 0.171875 -1.269531 0.171875 -1.40625 C 0.171875 -1.519531 0.203125 -1.617188 0.265625 -1.703125 C 0.328125 -1.785156 0.410156 -1.847656 0.515625 -1.890625 C 0.628906 -1.941406 0.75 -1.96875 0.875 -1.96875 C 1 -1.96875 1.117188 -1.945312 1.234375 -1.90625 C 1.359375 -1.863281 1.457031 -1.796875 1.53125 -1.703125 C 1.5625 -1.660156 1.578125 -1.617188 1.578125 -1.578125 C 1.578125 -1.515625 1.554688 -1.46875 1.515625 -1.4375 C 1.472656 -1.40625 1.429688 -1.390625 1.390625 -1.390625 C 1.335938 -1.390625 1.296875 -1.410156 1.265625 -1.453125 C 1.222656 -1.503906 1.164062 -1.546875 1.09375 -1.578125 C 1.019531 -1.609375 0.941406 -1.625 0.859375 -1.625 C 0.671875 -1.625 0.578125 -1.554688 0.578125 -1.421875 C 0.578125 -1.367188 0.59375 -1.328125 0.625 -1.296875 C 0.664062 -1.265625 0.710938 -1.238281 0.765625 -1.21875 C 0.816406 -1.195312 0.890625 -1.175781 0.984375 -1.15625 C 1.109375 -1.113281 1.210938 -1.070312 1.296875 -1.03125 C 1.390625 -1 1.46875 -0.941406 1.53125 -0.859375 C 1.59375 -0.773438 1.625 -0.671875 1.625 -0.546875 C 1.625 -0.421875 1.585938 -0.3125 1.515625 -0.21875 C 1.441406 -0.132812 1.347656 -0.0703125 1.234375 -0.03125 C 1.128906 0.0078125 1.019531 0.03125 0.90625 0.03125 C 0.75 0.03125 0.597656 0.00390625 0.453125 -0.046875 C 0.316406 -0.0976562 0.207031 -0.179688 0.125 -0.296875 Z M 0.125 -0.296875 "/></g></g></g><g fill="#ff914d" fill-opacity="1"><g transform="translate(100.657939, 27.336955)"><g/></g></g></svg>